<svg width="63" height="63" viewBox="0 0 63 63" fill="none" xmlns="http://www.w3.org/2000/svg">
<path d="M36.2398 24.4102C36.8206 24.4102 37.4015 24.4102 38 24.4102C38 28.9561 38 33.502 38 38.1857C37.3938 38.1857 36.7877 38.1857 36.1632 38.1857C36.1615 36.4009 36.1601 34.6161 36.1593 32.8313C36.1589 32.0026 36.1583 31.1739 36.1575 30.3453C36.1567 29.6233 36.1562 28.9013 36.156 28.1794C36.1559 27.7968 36.1557 27.4143 36.1551 27.0318C36.1546 26.6722 36.1545 26.3125 36.1546 25.9529C36.1545 25.8205 36.1544 25.6882 36.1541 25.5558C36.1537 25.3758 36.1538 25.1959 36.154 25.016C36.154 24.915 36.1539 24.8141 36.1538 24.71C36.1632 24.4867 36.1632 24.4867 36.2398 24.4102Z" fill="#357E51"/>
<path d="M29.5059 24.4102C29.8484 25.2665 29.8487 25.2668 29.9561 25.5996C30.0784 25.9731 30.2027 26.346 30.3301 26.7178C30.3492 26.7736 30.369 26.8292 30.3887 26.8867C30.429 27.0044 30.4694 27.1225 30.5098 27.2402C30.5741 27.428 30.6379 27.6159 30.7021 27.8037C30.9084 28.4063 31.1153 29.009 31.3223 29.6113C31.4126 29.8743 31.5025 30.1374 31.5928 30.4004C31.6357 30.5254 31.6787 30.6504 31.7217 30.7754C32.0999 31.8738 32.1003 31.8742 32.2314 32.3271C32.3024 32.5712 32.3865 32.8041 32.4834 33.0391C32.7182 33.6105 32.8908 34.2029 33.0752 34.792C33.2223 35.2572 33.3785 35.713 33.5645 36.1641C33.6987 36.4997 33.8119 36.8425 33.9258 37.1855C33.95 37.2568 33.9741 37.3289 33.999 37.4023C34.0218 37.4705 34.044 37.5391 34.0674 37.6094C34.0878 37.6705 34.1088 37.7319 34.1299 37.7949C34.1741 37.956 34.1738 37.9562 34.1738 38.1855H32.2607C32.1771 37.933 32.093 37.6801 32.0068 37.4199C31.6159 36.2436 31.2107 35.0723 30.8066 33.9004C29.2156 33.8751 27.6246 33.8493 25.9854 33.8232C25.9096 34.0758 25.8339 34.3287 25.7559 34.5889C25.7073 34.7399 25.6578 34.8906 25.6074 35.041C25.5816 35.1183 25.5559 35.1958 25.5293 35.2754C25.5031 35.3534 25.4762 35.4313 25.4492 35.5117C25.423 35.59 25.3971 35.6684 25.3701 35.749C25.2733 36.0382 25.1763 36.3281 25.0791 36.6172C24.9636 36.9616 24.8522 37.3068 24.7461 37.6543C24.6774 37.8792 24.6775 37.8799 24.6074 38.1094H22.7715C22.8739 37.6486 22.9814 37.2152 23.1318 36.7715C23.1514 36.7129 23.1712 36.6541 23.1914 36.5938C23.2326 36.4708 23.2739 36.3475 23.3154 36.2246C23.3784 36.0382 23.4406 35.8516 23.5029 35.665C23.5433 35.5447 23.5836 35.424 23.624 35.3037C23.6517 35.2213 23.6525 35.2208 23.6807 35.1367C23.7865 34.8235 23.8985 34.5133 24.0156 34.2041C24.1083 33.9557 24.1946 33.705 24.2803 33.4541C24.2995 33.3981 24.3181 33.3419 24.3379 33.2842C24.4008 33.1005 24.4637 32.9161 24.5264 32.7324C24.5591 32.6368 24.5594 32.6366 24.5928 32.5391C24.9031 31.631 25.2094 30.7213 25.5117 29.8105C25.8848 28.6866 26.2642 27.5646 26.6455 26.4434C26.6862 26.3237 26.6861 26.3233 26.7275 26.2012C26.8046 25.9743 26.8817 25.7473 26.959 25.5205C26.982 25.4526 27.0055 25.3844 27.0293 25.3145C27.0508 25.2513 27.0725 25.1881 27.0947 25.123C27.1134 25.0683 27.1322 25.0134 27.1514 24.957C27.2172 24.773 27.2907 24.5916 27.3633 24.4102H29.5059ZM28.3047 26.2256C28.279 26.3239 28.2535 26.4192 28.2285 26.5146C27.9127 27.6218 27.8338 27.8985 27.6084 28.582L27.0186 30.3516C26.9988 30.4106 26.9801 30.4681 26.9609 30.5254C26.8752 30.7833 26.7913 31.0417 26.6924 31.2949C26.5391 31.6842 26.4618 32.0242 26.3682 32.4453H30.4238C30.4238 32.204 30.3672 32.0176 30.292 31.79C30.2723 31.7317 30.2535 31.6748 30.2344 31.6182C30.194 31.4968 30.1528 31.3752 30.1123 31.2539C30.0483 31.0639 29.9842 30.8739 29.9209 30.6836C29.7609 30.2024 29.6081 29.7171 29.4199 29.2461C29.1942 28.7121 29.042 28.163 28.8906 27.6045C28.8305 27.3818 28.7701 27.159 28.709 26.9365C28.6942 26.8828 28.6803 26.8304 28.666 26.7783C28.5861 26.4827 28.5283 26.2725 28.3584 26.0176C28.3402 26.0882 28.3223 26.157 28.3047 26.2256Z" fill="#357E51"/>
<path d="M30.4678 0.168945C31.0825 -0.067789 31.774 -0.073091 32.4092 0.268555C33.0999 0.740938 33.5491 1.23341 33.7197 2.0625C33.7921 2.87216 33.6525 3.48125 33.1357 4.11523C32.8094 4.49487 32.5392 4.56684 32.0361 4.81836C32.0109 8.75802 31.986 12.6978 31.96 16.7568H38.2354V11.3994C38.1091 11.3742 37.9826 11.3493 37.8525 11.3232C37.1933 10.9722 36.7785 10.5098 36.5225 9.81152C36.3772 9.06227 36.4097 8.35622 36.8125 7.70508C37.175 7.19057 37.6373 6.85463 38.2354 6.65527C39.1139 6.59446 39.8271 6.63494 40.5498 7.19043C40.6639 7.30036 40.7645 7.41591 40.8545 7.53516C40.8735 7.4971 40.8935 7.45906 40.9131 7.41992L41.1426 7.64941C41.1173 7.69988 41.0924 7.75074 41.0664 7.80273C41.1422 7.82798 41.2179 7.85387 41.2959 7.87988C41.2407 7.91669 41.185 7.95283 41.1289 7.99023C41.2559 8.2665 41.3304 8.56699 41.3506 8.89746C41.3636 9.62417 41.1965 10.222 40.709 10.7822C40.4424 11.0291 40.0451 11.328 39.6641 11.3867C39.6722 11.3908 39.6802 11.3953 39.6885 11.3994L39.5361 11.4248V16.7568C40.3911 16.7418 40.3912 16.7421 41.2461 16.7227C42.5051 16.7037 43.5958 17.0433 44.541 17.8945C44.5295 17.8513 44.5198 17.8047 44.5107 17.752H44.6631C44.6883 17.7772 44.7142 17.8021 44.7402 17.8281H44.9697C44.995 17.9797 45.0199 18.132 45.0459 18.2881C44.9757 18.2881 44.927 18.2859 44.8896 18.2832C45.6876 19.2932 45.8464 20.385 45.8262 21.707C45.8214 22.1442 45.8164 22.5818 45.8115 23.0322H51.1689C51.1942 22.906 51.2191 22.7794 51.2451 22.6494C51.53 22.0546 51.9984 21.6448 52.5908 21.3799C52.6013 21.3694 52.6125 21.3592 52.623 21.3486C52.6327 21.3496 52.6421 21.3506 52.6514 21.3516C52.6637 21.3463 52.6761 21.341 52.6885 21.3359C53.2511 21.188 54.0099 21.167 54.5488 21.417C54.5921 21.4431 54.634 21.4705 54.6758 21.4971C54.6801 21.4985 54.6842 21.5005 54.6885 21.502V21.5049C55.2831 21.886 55.7182 22.3242 55.9141 23.0322C55.9781 23.6953 55.9455 24.3254 55.6641 24.8975C55.6509 24.9314 55.6355 24.9567 55.6201 24.9795C55.5588 25.0929 55.4894 25.205 55.4062 25.3135C54.9253 25.8226 54.3452 26.096 53.6533 26.1201C52.9243 26.1313 52.4313 26.0101 51.8672 25.5195C51.8135 25.4564 51.7594 25.3932 51.7041 25.3281C51.6505 25.2667 51.5972 25.2049 51.542 25.1416C51.5277 25.1221 51.5142 25.1031 51.501 25.085C51.4932 25.0888 51.4847 25.0936 51.4746 25.0986C51.4716 25.0774 51.4679 25.0564 51.4648 25.0352C51.1694 24.6298 51.1689 24.6091 51.1689 24.333H45.8115V30.6855H57.75C57.7752 30.5593 57.8011 30.4328 57.8271 30.3027C58.033 29.8522 58.3492 29.4879 58.7451 29.2168V29.002C58.9831 28.8521 59.123 28.8472 59.373 28.9111C59.4449 28.8913 59.5162 28.8764 59.5869 28.8633V28.8486H59.667C59.9032 28.8129 60.1329 28.8146 60.3623 28.8486H60.5049C60.5076 28.8569 60.5099 28.8657 60.5127 28.874C60.7446 28.9229 60.9767 29.0033 61.2129 29.1143C61.8697 29.479 62.2623 29.9649 62.4951 30.6855C62.6032 31.4306 62.5005 32.1516 62.0654 32.7764C61.5969 33.3403 61.0325 33.6901 60.2979 33.7686C59.8742 33.7815 59.5012 33.7216 59.1562 33.5791C59.148 33.5832 59.1388 33.5883 59.1279 33.5938C59.0773 33.5619 59.027 33.5292 58.9766 33.4971C58.7634 33.387 58.5598 33.243 58.3623 33.0576C58.0811 32.7395 57.9091 32.4602 57.75 32.0625C53.8103 32.0372 49.8706 32.0123 45.8115 31.9863V38.2617H51.1689C51.1942 38.1356 51.2191 38.0089 51.2451 37.8789C51.466 37.4882 51.7457 37.1646 52.0869 36.9062V36.8848C52.4905 36.6381 52.4909 36.6376 52.623 36.5781C53.191 36.432 53.9083 36.3794 54.4639 36.5908C54.653 36.7031 54.8231 36.8242 54.9951 36.9609C55.003 36.9661 55.0107 36.9714 55.0186 36.9766C55.0085 36.9309 55.0028 36.8779 54.9951 36.8086L55.0713 36.9609C55.1422 36.9728 55.1426 36.9733 55.2148 36.9854C55.4496 37.0613 55.4985 37.2075 55.6074 37.4199L55.5215 37.4629C55.8153 37.8801 55.9588 38.3392 55.9619 38.8838C55.9477 39.4617 55.8149 39.9614 55.4941 40.4092L55.5303 40.4814C55.4394 40.7157 55.4394 40.7157 55.3008 40.9404C55.1431 41.0025 55.1431 41.0033 54.9951 41.0176C54.9194 41.0555 54.9191 41.0551 54.8418 41.0938V41.3232H54.6885V41.1699L54.5889 41.1201C54.1114 41.3344 53.6057 41.3811 53.0088 41.3428C52.4602 41.2738 52.039 40.9874 51.6787 40.5957C51.6732 40.5899 51.6676 40.5841 51.6621 40.5781C51.5508 40.6338 51.5371 40.6416 51.3984 40.7109C51.3156 40.3613 51.3122 40.3481 51.3887 40.1943C51.2949 40.0155 51.2486 39.8414 51.1689 39.5625H45.8115V42.165C45.4374 43.4745 44.9824 44.5524 43.7852 45.2842C42.3595 45.9848 41.2512 45.8389 39.5361 45.8389V51.1953C39.7129 51.2458 39.8901 51.2966 40.0723 51.3486C40.6905 51.7028 41.0927 52.1958 41.2959 52.8789C41.3974 53.7067 41.3102 54.4006 40.8232 55.0791C40.6412 55.2997 40.4488 55.4699 40.2246 55.6143V55.7881H39.9951C40.0203 55.8889 40.0453 55.9898 40.0713 56.0938C39.9704 56.0433 39.8696 55.9924 39.7656 55.9404C39.8256 55.8785 39.873 55.8296 39.9121 55.79C39.8578 55.8167 39.803 55.8437 39.7471 55.8711C39.6799 55.893 39.6105 55.9106 39.54 55.9268C39.5385 55.9312 39.5376 55.9359 39.5361 55.9404H39.4814C38.9071 56.0584 38.2486 55.9919 37.7324 55.7588C37.1753 55.4342 36.7 54.906 36.5049 54.2812C36.3964 53.6483 36.3772 52.9151 36.7041 52.3438C36.9291 52.0401 37.1797 51.7466 37.4766 51.5137C37.4981 51.4924 37.522 51.4688 37.5508 51.4443C37.5997 51.4128 37.6488 51.3811 37.6992 51.3486L37.709 51.3535C37.8037 51.2947 37.9017 51.2401 38.0059 51.1953H38.2354V45.8389H31.96C31.9852 49.7785 32.0101 53.7183 32.0361 57.7773L32.8018 58.1602C32.9601 58.2955 33.096 58.434 33.2139 58.5771C33.2439 58.6115 33.273 58.6468 33.3008 58.6836C33.3128 58.6876 33.3248 58.6922 33.3369 58.6963C33.346 58.7234 33.3521 58.7463 33.3584 58.7656C33.3768 58.7929 33.396 58.82 33.4131 58.8486C33.4126 58.8502 33.4117 58.8519 33.4111 58.8535C33.591 59.1492 33.6999 59.4793 33.7383 59.8828C33.7586 60.6019 33.5955 61.1849 33.1357 61.7471C32.6112 62.2951 31.9773 62.528 31.2324 62.5557C30.5593 62.5486 30.0698 62.3424 29.5576 61.9092C29.1624 61.5038 28.9332 61.0564 28.8359 60.5371L28.8213 60.5322V60.4434C28.8026 60.3223 28.7885 60.1976 28.7832 60.0684C28.7881 59.9462 28.8026 59.8296 28.8213 59.7168V59.6143H28.8389C28.9368 59.1445 29.16 58.7489 29.5156 58.3711C29.8406 58.0757 30.1559 57.8839 30.582 57.7773V45.8389H24.3066V51.1953C24.4076 51.2205 24.5083 51.2465 24.6123 51.2725C24.6929 51.3141 24.7713 51.3585 24.8477 51.4053C24.9024 51.4288 24.9664 51.457 25.0713 51.502C25.0619 51.516 25.0532 51.5281 25.0459 51.5391C25.0887 51.5695 25.13 51.6015 25.1709 51.6338C25.1402 51.5974 25.1068 51.5552 25.0713 51.502C25.0965 51.4514 25.1214 51.4007 25.1475 51.3486C25.3005 51.4252 25.4544 51.5016 25.6074 51.5781V51.8848C25.4892 51.8443 25.4069 51.8118 25.3369 51.7725C25.3504 51.7847 25.3628 51.798 25.376 51.8105L25.3779 51.8086L25.6836 52.1143C25.6806 52.1218 25.6769 52.1291 25.6738 52.1367C25.8408 52.3559 25.9743 52.6028 26.0664 52.8789C26.1213 53.8272 26.0669 54.4941 25.4521 55.248C25.227 55.4826 24.9805 55.645 24.6895 55.7871C24.6331 55.8149 24.5766 55.8434 24.5186 55.8721C23.9258 56.0644 23.1267 56.0437 22.5654 55.7686C22.1416 55.5216 21.8301 55.2494 21.5703 54.8311C21.5471 54.7943 21.5234 54.7578 21.5 54.7207C21.4335 54.6268 21.3892 54.5526 21.3643 54.4688C21.147 53.9525 21.1842 53.3091 21.2783 52.7686C21.2975 52.7104 21.3207 52.6547 21.3438 52.5996C21.3548 52.5628 21.3723 52.5216 21.3936 52.4678C21.4234 52.4221 21.4302 52.4099 21.4492 52.3809C21.7104 51.9038 22.1204 51.5489 22.6045 51.2715C22.7754 51.1953 22.7763 51.1953 23.0059 51.1953V45.8389C22.1439 45.8509 22.1431 45.8507 21.2812 45.8662C20.3961 45.8767 19.6341 45.7246 18.9355 45.3438C18.9148 45.4058 18.8944 45.4683 18.873 45.5322C18.6866 45.4796 18.6861 45.4802 18.4902 45.3799C18.4292 45.1828 18.4286 45.1786 18.415 45.0068C18.2687 44.8973 18.1237 44.7772 17.9814 44.6436C16.527 43.1722 16.7295 41.6806 16.7295 39.5625H11.373C11.3225 39.7392 11.2718 39.9165 11.2197 40.0986C11.0544 40.382 10.8587 40.6113 10.6338 40.7998C10.656 40.8014 10.6814 40.8034 10.7119 40.8066C10.753 40.8256 10.7946 40.8447 10.8369 40.8643C10.7494 40.9139 10.7493 40.9143 10.6602 40.9648C10.4559 41.0789 10.4551 41.0785 10.3389 41.2275C10.3011 41.259 10.2635 41.2908 10.2246 41.3232C10.0201 41.2995 10.0187 41.2998 9.84473 41.248C9.76951 41.2751 9.69235 41.3009 9.6123 41.3232C9.11093 41.3711 8.65621 41.3632 8.22754 41.2354C8.20791 41.2383 8.18531 41.2432 8.1582 41.2471C8.12916 41.2243 8.10765 41.2047 8.08887 41.1895C7.85554 41.1041 7.62924 40.9806 7.40723 40.8066C6.94273 40.3727 6.66258 39.8339 6.59961 39.2002C6.57981 38.5453 6.62775 38.0525 7.01074 37.4971C7.09351 37.3741 7.09335 37.3734 7.17773 37.248C7.34156 37.0879 7.50273 36.9582 7.66699 36.8545C7.80112 36.7641 7.81839 36.755 8.00488 36.6553C8.01584 36.6589 8.02712 36.6624 8.03809 36.666C8.38314 36.529 8.75684 36.4813 9.20508 36.4854C9.75271 36.5214 10.1695 36.7087 10.6074 37.0371C10.6721 37.0781 10.7371 37.1198 10.8037 37.1621C10.9757 37.3298 11.0958 37.5213 11.1992 37.7266H11.2197C11.2285 37.7572 11.2373 37.7877 11.2461 37.8184C11.2902 37.9126 11.3324 38.0091 11.373 38.1084V38.2617H16.7295V31.9863C12.7899 32.0116 8.85004 32.0365 4.79102 32.0625L4.4082 32.8281C4.20389 33.079 3.97216 33.278 3.71582 33.4316C3.71683 33.4347 3.71872 33.4374 3.71973 33.4404C3.71012 33.4428 3.70004 33.4449 3.69043 33.4473C3.39453 33.6197 3.06545 33.7313 2.7002 33.7803C1.94129 33.8187 1.35658 33.6307 0.782227 33.1279C0.216159 32.5326 -0.00698326 31.9719 0 31.1514C0.00677193 31.0154 0.0260438 30.8861 0.0517578 30.7617C0.0499938 30.7366 0.0477003 30.7112 0.0458984 30.6855C0.0523433 30.6877 0.0589834 30.6893 0.0654297 30.6914C0.183206 30.1982 0.450472 29.7901 0.849609 29.418C1.49875 28.893 2.13197 28.7723 2.9541 28.8486C3.20324 28.9217 3.41913 29.0258 3.64355 29.1553C3.72384 29.2009 3.80401 29.2469 3.88672 29.2939C4.26257 29.5863 4.57709 29.9512 4.79102 30.3789V30.6084H16.7295V24.333H11.373C11.3623 24.3708 11.3507 24.4084 11.3398 24.4463C11.3547 24.5898 11.3057 24.682 11.2197 24.8691C10.9081 25.4267 10.4169 25.8495 9.80859 26.0547C9.11479 26.1934 8.39726 26.1898 7.7793 25.8193C7.72777 25.7837 7.67613 25.7477 7.62305 25.7109C7.57867 25.6816 7.534 25.6523 7.48828 25.6221C7.06989 25.3122 6.78455 24.8237 6.62793 24.333C6.59619 23.9653 6.5897 23.6381 6.62793 23.3271V23.0322C6.64413 23.0376 6.66053 23.0424 6.67676 23.0479C6.74941 22.7307 6.87957 22.4231 7.10156 22.0996C7.15847 22.0427 7.21723 21.991 7.27441 21.9404C7.28837 21.9221 7.30193 21.9032 7.31641 21.8848C7.31807 21.8886 7.31874 21.8928 7.32031 21.8965C7.33843 21.881 7.3578 21.8674 7.37598 21.8525C7.33124 21.8376 7.28609 21.8229 7.24023 21.8076V21.502L7.39258 21.4258C7.55521 21.4975 7.55572 21.4968 7.69922 21.5781C7.6787 21.6055 7.65728 21.6327 7.63672 21.6602C7.74898 21.5875 7.86346 21.5253 7.98145 21.4727C8.12052 21.3629 8.1671 21.351 8.32227 21.3496C8.59525 21.2729 8.89039 21.2384 9.2207 21.2383C9.70258 21.2508 10.0556 21.3804 10.4541 21.6553C10.5362 21.7105 10.6186 21.7654 10.7031 21.8223C10.9655 22.0906 11.252 22.4283 11.3418 22.8027H11.3721V23.0098C11.3723 23.0172 11.373 23.0247 11.373 23.0322H16.7295C16.7175 22.1706 16.7177 22.1703 16.7021 21.3086C16.6866 20.0056 17.0227 18.9658 17.9258 18.0078C18.1986 17.7373 18.4951 17.4986 18.8135 17.3037C18.8081 17.2999 18.8018 17.2971 18.7959 17.293C19.0155 17.1759 19.123 17.118 19.21 17.0898C19.6733 16.8726 20.1769 16.748 20.7158 16.748C20.8021 16.7486 20.8026 16.7484 20.8906 16.749C20.9443 16.7491 20.9984 16.7499 21.0537 16.75C21.2529 16.7504 21.4522 16.751 21.6514 16.752C22.0981 16.7535 22.5456 16.7552 23.0059 16.7568V11.4004L23.0049 11.3994C23.0032 11.399 23.0017 11.3979 23 11.3975C22.8758 11.3726 22.751 11.3488 22.623 11.3232C22.4906 11.2473 22.3696 11.1684 22.2568 11.0879C22.2515 11.0897 22.2461 11.0918 22.2402 11.0938C22.0912 10.9922 21.9681 10.8866 21.8613 10.7705C21.8599 10.7762 21.8588 10.7824 21.8574 10.7881C21.6997 10.6112 21.6997 10.6105 21.5518 10.4053C21.5562 10.392 21.56 10.3785 21.5645 10.3652C21.4804 10.2285 21.4082 10.0782 21.3447 9.91016C21.3435 9.90763 21.3421 9.90487 21.3408 9.90234C21.3397 9.89914 21.339 9.89579 21.3379 9.89258C21.3271 9.86353 21.3139 9.83481 21.3037 9.80469C21.2962 9.77355 21.2909 9.74204 21.2842 9.71094C21.1278 9.11155 21.1934 8.44777 21.4551 7.89258C21.4731 7.86128 21.4944 7.83213 21.5137 7.80176C21.5268 7.77712 21.5377 7.75102 21.5518 7.72656C21.6924 7.50638 21.8684 7.31831 22.0674 7.1582C22.1432 7.08884 22.2244 7.02229 22.3164 6.96094C22.3219 6.96367 22.3275 6.96601 22.333 6.96875C22.3783 6.94057 22.4248 6.9144 22.4717 6.88867L22.4697 6.88477C22.5707 6.82348 22.6465 6.7824 22.7324 6.76074C22.8219 6.722 22.913 6.68623 23.0059 6.65527C23.0735 6.65022 23.1402 6.64572 23.2061 6.6416C23.7151 6.5371 24.2544 6.58472 24.7461 6.82715C24.8096 6.86577 24.8713 6.90763 24.9336 6.94824C24.9797 6.97576 25.0261 7.00507 25.0723 7.03711C25.1416 7.08121 25.2108 7.12547 25.2822 7.1709C25.3231 7.21179 25.3617 7.25468 25.4004 7.29688C25.4179 7.26181 25.4361 7.22646 25.4541 7.19043C25.6308 7.31663 25.8072 7.44322 25.9893 7.57324L25.8369 7.64941C25.8195 7.70154 25.8008 7.75376 25.7832 7.80664C25.8897 7.98599 25.9749 8.17473 26.0283 8.37695L26.0664 8.41504C26.0658 8.47281 26.0639 8.51048 26.0625 8.54297C26.08 8.64218 26.0934 8.74365 26.0957 8.84863C26.0956 8.90097 26.0958 8.9539 26.0957 9.00781C26.0956 9.06212 26.0949 9.1169 26.0947 9.17285C26.0846 9.60731 26.0019 9.93032 25.7812 10.293C25.7743 10.3045 25.7679 10.3165 25.7607 10.3281C25.7519 10.3448 25.7422 10.3612 25.7334 10.3779L25.8369 10.4814C25.7611 10.5825 25.6855 10.684 25.6074 10.7881L25.6836 10.9404C25.2207 11.1588 25.1815 11.1752 24.9814 11.1113C24.8581 11.1804 24.7285 11.2405 24.5908 11.2949C24.5973 11.3044 24.6055 11.3131 24.6123 11.3232C24.4689 11.3663 24.3972 11.3877 24.3398 11.3877C24.3288 11.3914 24.3178 11.3957 24.3066 11.3994V16.7568H30.582V4.81836C30.4306 4.76788 30.2791 4.71705 30.123 4.66504C30.0735 4.63763 30.0272 4.60648 29.9805 4.57715C29.9768 4.58086 29.9735 4.58514 29.9697 4.58887C29.9294 4.5568 29.8897 4.52365 29.8496 4.49121C29.7575 4.42592 29.672 4.35617 29.5918 4.28223C29.5586 4.25523 29.5253 4.22786 29.4912 4.2002C29.4407 4.14477 29.4092 4.11017 29.3896 4.07227C29.1608 3.80439 28.9897 3.49053 28.8721 3.12402C28.7175 2.44953 28.7952 1.80899 29.1475 1.21191C29.4359 0.796986 29.8329 0.461518 30.2803 0.249023C30.2784 0.241609 30.2773 0.234007 30.2754 0.226562C30.3415 0.193506 30.4051 0.176492 30.4678 0.168945ZM21.0879 18.0176C20.1927 18.0263 19.4135 18.3011 18.7959 18.9014C18.8575 19.0294 18.8587 19.0296 18.873 19.2061C18.7077 19.3983 18.565 19.551 18.3369 19.665C18.4624 19.3933 18.6237 19.1521 18.792 18.9053C18.6903 19.0045 18.5927 19.1123 18.5 19.2295C18.0985 19.8782 17.9854 20.5246 17.9912 21.2764C17.9907 21.3653 17.9908 21.4543 17.9902 21.5459C17.9891 21.7907 17.9894 22.0364 17.9902 22.2812C17.9908 22.5461 17.9893 22.8113 17.9883 23.0762C17.9866 23.5943 17.9867 24.1127 17.9873 24.6309V26.0771C17.9872 26.1993 17.9865 26.3222 17.9863 26.4443C17.9851 27.5885 17.986 28.7328 17.9873 29.877C17.9884 30.9221 17.9876 31.9676 17.9854 33.0127C17.9831 34.0875 17.9817 35.1625 17.9824 36.2373V36.7842C17.9826 37.2046 17.9826 37.6255 17.9814 38.0459V40.3701C17.9338 42.1152 17.9336 42.1158 18.7627 43.5908C18.8195 43.6501 18.877 43.7094 18.9355 43.7705C19.1764 43.9936 19.4167 44.1699 19.71 44.3174C19.7596 44.3428 19.8093 44.3683 19.8604 44.3945C20.1635 44.5199 20.4615 44.547 20.7871 44.5479C20.8628 44.5482 20.9386 44.5484 21.0166 44.5488C21.0993 44.5489 21.1824 44.5488 21.2676 44.5488C21.4001 44.5493 21.4009 44.5493 21.5361 44.5498C21.7809 44.5506 22.0257 44.5514 22.2705 44.5518C22.5349 44.5522 22.8001 44.5529 23.0645 44.5537C23.7027 44.5556 24.3412 44.5566 24.9795 44.5576C25.1598 44.5579 25.3402 44.5583 25.5205 44.5586C26.6419 44.5605 27.7634 44.5625 28.8848 44.5635C29.1444 44.5637 29.4044 44.5642 29.6641 44.5645C29.7285 44.5645 29.793 44.5644 29.8594 44.5645C30.9038 44.5654 31.9487 44.5681 32.9932 44.5713C34.0664 44.5745 35.1397 44.5758 36.2129 44.5762C36.8151 44.5764 37.4173 44.5776 38.0195 44.5801C38.5326 44.5822 39.0456 44.5829 39.5586 44.582C39.82 44.5816 40.0814 44.5821 40.3428 44.584C41.3693 44.5961 41.8286 44.5999 42.293 44.4404C42.2669 44.4469 42.2411 44.4544 42.2148 44.4609C42.2913 44.2316 42.2913 44.2311 42.4443 44.0781C42.6294 44.1398 42.6646 44.1526 42.752 44.2354C42.9869 44.1101 43.2594 43.9426 43.6201 43.7168C43.633 43.7019 43.6461 43.687 43.6592 43.6719C43.7 43.6249 43.7412 43.5777 43.7832 43.5293C43.9109 43.3797 43.9105 43.3791 44.0508 43.1602C44.0578 43.1742 44.0653 43.1881 44.0723 43.2021C44.4365 42.6231 44.5442 42.004 44.54 41.2598C44.5405 41.1709 44.5406 41.0818 44.541 40.9902C44.5419 40.7448 44.5426 40.4984 44.542 40.2529C44.5416 39.9877 44.5422 39.7223 44.543 39.457C44.5443 38.9379 44.5443 38.4186 44.5439 37.8994C44.5436 37.4771 44.5435 37.0541 44.5439 36.6318C44.544 36.5717 44.5449 36.5111 44.5449 36.4492V32.6445C44.5442 31.5974 44.545 30.5501 44.5469 29.5029C44.5487 28.4263 44.5493 27.349 44.5488 26.2725C44.5486 25.6687 44.5485 25.0647 44.5498 24.4609V22.1328C44.5508 21.8481 44.5502 21.563 44.5488 21.2783C44.5496 21.1965 44.55 21.1146 44.5508 21.0303C44.5424 20.1747 44.297 19.5313 43.7012 18.917C43.6633 18.8823 43.6256 18.8487 43.5879 18.8164C43.4969 18.8042 43.453 18.7653 43.3096 18.6318C43.2838 18.604 43.2583 18.5759 43.2324 18.5479C42.6409 18.1553 42.0254 18.0239 41.2363 18.0283C41.1477 18.0279 41.0591 18.0278 40.9678 18.0273C40.7234 18.0264 40.4788 18.0258 40.2344 18.0264C39.9701 18.0267 39.7057 18.0262 39.4414 18.0254C38.9243 18.0241 38.4068 18.024 37.8896 18.0244H36.4453C36.3236 18.0243 36.2018 18.0236 36.0801 18.0234C34.9385 18.0224 33.7968 18.0226 32.6553 18.0234C31.6123 18.0242 30.5693 18.0233 29.5264 18.0215C28.4541 18.0196 27.3818 18.019 26.3096 18.0195C25.7081 18.0198 25.1063 18.0199 24.5049 18.0186H22.1855C21.9019 18.0175 21.6177 18.0182 21.334 18.0195C21.2528 18.0188 21.1716 18.0183 21.0879 18.0176ZM25.4248 10.7891C25.434 10.789 25.4437 10.7881 25.4541 10.7881V10.7871C25.4469 10.7857 25.4398 10.7837 25.4326 10.7822C25.4301 10.7846 25.4273 10.7867 25.4248 10.7891Z" fill="#357E51"/>
</svg>
