<svg width="163" height="46" viewBox="25.5 12.5 163 46" fill="none" xmlns="http://www.w3.org/2000/svg">
<path d="M103.52 22.5134L97.3694 34.9022H109.696L103.545 22.5134H103.52ZM103.52 28.2881L105.519 32.3074H101.52L103.52 28.2881Z" fill="white"/>
<path d="M68.4648 22.5134L62.3143 34.9022H74.6405L68.4901 22.5134H68.4648ZM68.4648 28.2881L70.4643 32.3074H66.4652L68.4648 28.2881Z" fill="white"/>
<path d="M80.4873 25.2863V34.8767H77.855V25.2863H74.2103V22.8441H84.132V25.2863H80.4873Z" fill="white"/>
<path d="M86.8908 34.8767V22.8441H89.5231V32.4855H95.4964V34.9022H86.8908V34.8767Z" fill="white"/>
<path d="M116.048 35.0548C114.226 35.0548 112.404 34.4188 110.961 33.1215L112.53 31.239C113.619 32.1293 114.732 32.689 116.099 32.689C117.187 32.689 117.82 32.2565 117.82 31.5442C117.82 30.832 117.415 30.5013 115.416 29.967C113.011 29.3565 111.442 28.6697 111.442 26.2784C111.442 24.0652 113.188 22.6152 115.643 22.6152C117.39 22.6152 118.883 23.1748 120.098 24.1415L118.731 26.1258C117.668 25.388 116.631 24.9301 115.618 24.9301C114.606 24.9301 114.074 25.388 114.074 25.9731C114.074 26.7872 114.58 27.067 116.656 27.6012C119.086 28.2372 120.452 29.1276 120.452 31.2135C120.452 33.6302 118.63 34.9785 116.048 34.9785V35.0548Z" fill="white"/>
<path d="M64.972 45.8407C63.9342 45.8407 62.8965 45.4845 62.0612 44.7468L62.9471 43.6784C63.5546 44.1871 64.2126 44.5179 64.9973 44.5179C65.6047 44.5179 65.9844 44.2635 65.9844 43.8819C65.9844 43.4749 65.7566 43.2713 64.6176 42.9915C63.2508 42.6354 62.3397 42.2538 62.3397 40.8801C62.3397 39.6081 63.3268 38.7941 64.7442 38.7941C65.7313 38.7941 66.5918 39.0994 67.2752 39.659L66.4906 40.8038C65.8831 40.3713 65.2757 40.1169 64.7188 40.1169C64.162 40.1169 63.833 40.3713 63.833 40.7275C63.833 41.2108 64.1367 41.338 65.301 41.6433C66.6931 41.9994 67.4777 42.5082 67.4777 43.7038C67.4777 45.0775 66.44 45.8661 64.972 45.8661V45.8407Z" fill="white"/>
<path d="M73.2232 45.7392L71.0971 42.8137L70.3125 43.6277V45.7392H68.8192V38.8707H70.3125V41.8724L73.0966 38.8707H74.919L72.1348 41.7961L75.0455 45.7646H73.2485L73.2232 45.7392Z" fill="white"/>
<path d="M76.4376 45.7392V38.8707H77.9309V45.7392H76.4376Z" fill="white"/>
<path d="M80.0823 45.7392V38.8707H81.5756V44.3655H84.9925V45.7392H80.0823Z" fill="white"/>
<path d="M86.5618 45.7392V38.8707H88.0551V44.3655H91.472V45.7392H86.5618Z" fill="white"/>
<path d="M95.5723 40.2444V45.7392H94.079V40.2444H92.0036V38.8452H97.6731V40.2444H95.5977H95.5723Z" fill="white"/>
<path d="M99.2423 45.7392V38.8707H104.406V40.2189H100.736V41.6181H103.95V42.9663H100.736V44.4163H104.456V45.7646H99.2423V45.7392Z" fill="white"/>
<path d="M109.442 45.8409C107.418 45.8409 105.924 44.2891 105.924 42.3049C105.924 40.3207 107.392 38.718 109.493 38.718C110.784 38.718 111.543 39.1505 112.201 39.7865L111.239 40.9058C110.708 40.4224 110.176 40.1172 109.493 40.1172C108.329 40.1172 107.519 41.0838 107.519 42.254C107.519 43.4497 108.329 44.4418 109.493 44.4418C110.278 44.4418 110.759 44.1365 111.29 43.6277L112.252 44.5944C111.543 45.3576 110.759 45.8155 109.442 45.8155V45.8409Z" fill="white"/>
<path d="M118.149 45.7392V42.9663H115.365V45.7392H113.872V38.8707H115.365V41.5926H118.149V38.8707H119.643V45.7392H118.149Z" fill="white"/>
<path d="M64.972 54.4393C63.3015 54.4393 62.2891 53.498 62.2891 51.6664V48.105H63.6558V51.6156C63.6558 52.6331 64.162 53.1419 64.9973 53.1419C65.8325 53.1419 66.3387 52.6331 66.3387 51.641V48.0795H67.7055V51.5901C67.7055 53.4726 66.6425 54.3884 64.9973 54.3884L64.972 54.4393Z" fill="white"/>
<path d="M73.8053 54.3375L70.8187 50.3945V54.3375H69.4772V48.1304H70.7428L73.6281 51.9463V48.1304H74.9696V54.3375H73.8053Z" fill="white"/>
<path d="M76.8932 54.3375V48.1304H78.26V54.3375H76.8932Z" fill="white"/>
<path d="M82.9424 54.3884H81.7528L79.2471 48.1304H80.7404L82.3603 52.5059L83.9801 48.1304H85.4481L82.9424 54.3884Z" fill="white"/>
<path d="M86.3593 54.3375V48.1304H91.0164V49.3515H87.7007V50.6234H90.6114V51.8445H87.7007V53.1419H91.067V54.363H86.3593V54.3375Z" fill="white"/>
<path d="M96.4582 54.3375L95.1421 52.3533H94.079V54.3375H92.7122V48.1304H95.547C97.015 48.1304 97.8756 48.8936 97.8756 50.191C97.8756 51.2085 97.3441 51.8445 96.5594 52.1243L98.0781 54.3375H96.4835H96.4582ZM96.4835 50.2419C96.4835 49.6568 96.0785 49.3515 95.4205 49.3515H94.079V51.1322H95.4458C96.1038 51.1322 96.4835 50.7761 96.4835 50.2419Z" fill="white"/>
<path d="M101.672 54.4393C100.736 54.4393 99.7992 54.1086 99.0399 53.4472L99.8498 52.4805C100.407 52.9384 100.989 53.2436 101.697 53.2436C102.254 53.2436 102.583 53.0147 102.583 52.6585C102.583 52.3024 102.381 52.1243 101.343 51.8445C100.103 51.5138 99.293 51.1831 99.293 49.9366C99.293 48.7918 100.204 48.0541 101.444 48.0541C102.356 48.0541 103.115 48.3339 103.748 48.8427L103.039 49.8603C102.482 49.4787 101.951 49.2497 101.444 49.2497C100.938 49.2497 100.66 49.4787 100.66 49.7839C100.66 50.2164 100.913 50.3436 102.001 50.6234C103.267 50.9541 103.95 51.412 103.95 52.4805C103.95 53.727 103.014 54.4138 101.672 54.4138V54.4393Z" fill="white"/>
<path d="M105.519 54.3375V48.1304H106.886V54.3375H105.519Z" fill="white"/>
<path d="M111.189 49.4024V54.363H109.822V49.4024H107.949V48.1304H113.062V49.4024H111.189Z" fill="white"/>
<path d="M117.618 51.8699V54.3375H116.251V51.8954L113.872 48.1304H115.466L116.934 50.6234L118.428 48.1304H119.972L117.592 51.8699H117.618Z" fill="white"/>
<path d="M56.1386 48.1304L41.7622 39.7865L27.3859 48.1304L41.7622 56.4998L56.1386 48.1304Z" fill="#67639F"/>
<path d="M27.3859 22.8441V39.5321L41.7623 47.876L56.1386 39.5321V22.8441L41.7623 14.5002L27.3859 22.8441Z" fill="#23678C"/>
<path d="M56.1386 22.8441L41.7623 31.2135L27.3859 22.8441L41.7623 14.5002L56.1386 22.8441ZM41.7623 31.2135V47.876L56.1386 39.5321V22.8441L41.7623 31.2135Z" fill="#40A8B7"/>
<path d="M48.9504 27.0161L41.7623 47.876L56.1386 39.5321L48.9504 27.0161ZM49.6085 33.9355L52.2155 38.4636L47.0015 41.4909L49.6085 33.9355Z" fill="white"/>
<path d="M132.247 29.153C132.247 25.7442 134.905 22.9713 138.549 22.9713C142.194 22.9713 144.826 25.7187 144.826 29.0767C144.826 32.4855 142.169 35.2583 138.524 35.2583C134.879 35.2583 132.247 32.5109 132.247 29.153ZM142.118 29.153C142.118 27.067 140.625 25.388 138.524 25.388C136.423 25.388 134.981 27.0416 134.981 29.0767C134.981 31.1627 136.474 32.8416 138.575 32.8416C140.676 32.8416 142.118 31.1881 142.118 29.153Z" fill="#DBE269"/>
<path d="M146.877 25.9477H149.458V27.2451C150.04 26.4819 150.8 25.7696 152.116 25.7696C154.065 25.7696 155.204 27.067 155.204 29.153V35.0548H152.622V29.967C152.622 28.746 152.04 28.11 151.078 28.11C150.116 28.11 149.484 28.746 149.484 29.967V35.0548H146.902V25.9477H146.877Z" fill="#DBE269"/>
<path d="M157.532 22.6661H160.114V35.0803H157.532V22.6661Z" fill="#DBE269"/>
<path d="M162.645 25.9477H165.227V35.0548H162.645V25.9477Z" fill="#DBE269"/>
<path d="M167.631 25.9477H170.213V27.2451C170.795 26.4819 171.554 25.7696 172.87 25.7696C174.819 25.7696 175.958 27.067 175.958 29.153V35.0548H173.377V29.967C173.377 28.746 172.795 28.11 171.833 28.11C170.871 28.11 170.238 28.746 170.238 29.967V35.0548H167.656V25.9477H167.631Z" fill="#DBE269"/>
<path d="M177.73 30.5521C177.73 27.9065 179.578 25.7696 182.21 25.7696C185.247 25.7696 186.614 28.1354 186.614 30.7048C186.614 30.9083 186.614 31.1372 186.589 31.3916H180.286C180.54 32.5618 181.349 33.1723 182.488 33.1723C183.349 33.1723 183.982 32.8925 184.69 32.2311L186.158 33.5285C185.323 34.5715 184.108 35.2329 182.463 35.2329C179.73 35.2329 177.73 33.325 177.73 30.5267V30.5521ZM184.108 29.789C183.956 28.6442 183.273 27.8556 182.185 27.8556C181.096 27.8556 180.438 28.6188 180.21 29.789H184.083H184.108Z" fill="#DBE269"/>
<path d="M132.247 43.8308L132.88 43.093C133.31 43.4492 133.766 43.6781 134.297 43.6781C134.728 43.6781 134.981 43.5001 134.981 43.2202C134.981 42.9404 134.829 42.7878 134.019 42.5843C133.057 42.3299 132.424 42.0755 132.424 41.1088C132.424 40.2184 133.133 39.6333 134.095 39.6333C134.804 39.6333 135.386 39.8623 135.867 40.2439L135.31 41.0325C134.879 40.7272 134.475 40.5491 134.07 40.5491C133.665 40.5491 133.462 40.7272 133.462 40.9562C133.462 41.2869 133.665 41.3886 134.5 41.5921C135.462 41.8465 136.018 42.2027 136.018 43.0422C136.018 44.0088 135.284 44.5431 134.272 44.5431C133.538 44.5431 132.804 44.2887 132.247 43.7799V43.8308Z" fill="#DBE269"/>
<path d="M136.651 42.7119C136.651 41.6435 137.461 40.7786 138.575 40.7786C139.258 40.7786 139.688 41.0075 140.043 41.3891L139.41 42.076C139.182 41.8216 138.954 41.6689 138.575 41.6689C138.043 41.6689 137.689 42.1268 137.689 42.6611C137.689 43.2462 138.043 43.7041 138.625 43.7041C138.98 43.7041 139.208 43.5514 139.461 43.3225L140.068 43.933C139.714 44.3146 139.309 44.5944 138.575 44.5944C137.461 44.5944 136.677 43.7549 136.677 42.6865L136.651 42.7119Z" fill="#DBE269"/>
<path d="M140.751 39.5066H141.789V41.3637C142.017 41.0584 142.346 40.7786 142.852 40.7786C143.637 40.7786 144.092 41.3128 144.092 42.1523V44.5435H143.055V42.483C143.055 41.9997 142.827 41.7453 142.422 41.7453C142.017 41.7453 141.764 41.9997 141.764 42.483V44.5435H140.726V39.5321L140.751 39.5066Z" fill="#DBE269"/>
<path d="M144.826 42.7119C144.826 41.6435 145.662 40.7786 146.826 40.7786C147.99 40.7786 148.8 41.6181 148.8 42.6865C148.8 43.7549 147.965 44.6199 146.801 44.6199C145.636 44.6199 144.826 43.7804 144.826 42.7119ZM147.762 42.7119C147.762 42.1523 147.383 41.6689 146.801 41.6689C146.219 41.6689 145.839 42.1268 145.839 42.6611C145.839 43.2207 146.219 43.7041 146.801 43.7041C147.383 43.7041 147.762 43.2462 147.762 42.7119Z" fill="#DBE269"/>
<path d="M149.357 42.7119C149.357 41.6435 150.192 40.7786 151.357 40.7786C152.521 40.7786 153.331 41.6181 153.331 42.6865C153.331 43.7549 152.496 44.6199 151.331 44.6199C150.167 44.6199 149.357 43.7804 149.357 42.7119ZM152.293 42.7119C152.293 42.1523 151.913 41.6689 151.331 41.6689C150.749 41.6689 150.369 42.1268 150.369 42.6611C150.369 43.2207 150.749 43.7041 151.331 43.7041C151.913 43.7041 152.293 43.2462 152.293 42.7119Z" fill="#DBE269"/>
<path d="M154.141 39.5066H155.178V44.5181H154.141V39.5066Z" fill="#DBE269"/>
<path d="M158.013 42.7119C158.013 41.6435 158.848 40.7786 160.013 40.7786C161.177 40.7786 161.987 41.6181 161.987 42.6865C161.987 43.7549 161.152 44.6199 159.987 44.6199C158.823 44.6199 158.013 43.7804 158.013 42.7119ZM160.949 42.7119C160.949 42.1523 160.57 41.6689 159.987 41.6689C159.405 41.6689 159.026 42.1268 159.026 42.6611C159.026 43.2207 159.405 43.7041 159.987 43.7041C160.57 43.7041 160.949 43.2462 160.949 42.7119Z" fill="#DBE269"/>
<path d="M162.923 41.7453H162.493V40.8803H162.923V40.6514C162.923 40.2444 163.025 39.9391 163.227 39.761C163.43 39.5575 163.708 39.4812 164.062 39.4812C164.391 39.4812 164.619 39.5321 164.796 39.583V40.4479C164.645 40.397 164.493 40.3461 164.316 40.3461C164.088 40.3461 163.936 40.4733 163.936 40.7531V40.9058H164.771V41.7453H163.936V44.5435H162.898V41.7453H162.923Z" fill="#DBE269"/>
<path d="M132.576 47.9524H133.715L134.981 49.9875L136.246 47.9524H137.385V52.7603H136.347V49.6313L135.006 51.6919H134.981L133.639 49.6568V52.7858H132.602V47.9778L132.576 47.9524Z" fill="#DBE269"/>
<path d="M138.17 51.7173C138.17 50.9033 138.777 50.5217 139.638 50.5217C140.017 50.5217 140.271 50.5726 140.524 50.6743V50.6234C140.524 50.191 140.271 49.962 139.739 49.962C139.334 49.962 139.056 50.0383 138.727 50.1655L138.474 49.3769C138.879 49.1989 139.283 49.0717 139.891 49.0717C140.448 49.0717 140.878 49.2243 141.131 49.4787C141.41 49.7585 141.536 50.1655 141.536 50.6489V52.7858H140.524V52.3787C140.271 52.6586 139.916 52.8366 139.41 52.8366C138.727 52.8366 138.145 52.4296 138.145 51.7173H138.17ZM140.574 51.4629V51.2849C140.397 51.2085 140.169 51.1577 139.916 51.1577C139.461 51.1577 139.208 51.3357 139.208 51.6664C139.208 51.9717 139.435 52.1243 139.764 52.1243C140.245 52.1243 140.574 51.8445 140.574 51.4884V51.4629Z" fill="#DBE269"/>
<path d="M142.447 49.0971H143.485V49.6313C143.713 49.3261 144.042 49.0462 144.548 49.0462C145.333 49.0462 145.788 49.5804 145.788 50.4199V52.8112H144.751V50.7506C144.751 50.2673 144.523 50.0129 144.118 50.0129C143.713 50.0129 143.46 50.2673 143.46 50.7506V52.8112H142.422V49.1225L142.447 49.0971Z" fill="#DBE269"/>
<path d="M146.497 51.7173C146.497 50.9033 147.104 50.5217 147.965 50.5217C148.345 50.5217 148.598 50.5726 148.851 50.6743V50.6234C148.851 50.191 148.598 49.962 148.066 49.962C147.661 49.962 147.383 50.0383 147.054 50.1655L146.801 49.3769C147.206 49.1989 147.611 49.0717 148.218 49.0717C148.775 49.0717 149.205 49.2243 149.458 49.4787C149.737 49.7585 149.863 50.1655 149.863 50.6489V52.7858H148.851V52.3787C148.598 52.6586 148.243 52.8366 147.737 52.8366C147.054 52.8366 146.472 52.4296 146.472 51.7173H146.497ZM148.876 51.4629V51.2849C148.699 51.2085 148.471 51.1577 148.218 51.1577C147.762 51.1577 147.509 51.3357 147.509 51.6664C147.509 51.9717 147.737 52.1243 148.066 52.1243C148.547 52.1243 148.876 51.8445 148.876 51.4884V51.4629Z" fill="#DBE269"/>
<path d="M150.774 53.498L151.129 52.7094C151.508 52.9129 151.888 53.0401 152.369 53.0401C153.078 53.0401 153.407 52.7094 153.407 52.048V51.8699C153.103 52.2515 152.774 52.455 152.217 52.455C151.357 52.455 150.597 51.8191 150.597 50.7506C150.597 49.6313 151.382 49.0208 152.217 49.0208C152.774 49.0208 153.128 49.2497 153.407 49.5804V49.0971H154.444V51.9463C154.444 52.6077 154.293 53.091 153.989 53.3963C153.66 53.727 153.128 53.8796 152.42 53.8796C151.812 53.8796 151.255 53.7524 150.8 53.498H150.774ZM153.407 50.7506C153.407 50.2419 153.027 49.8857 152.521 49.8857C152.015 49.8857 151.635 50.2419 151.635 50.7252C151.635 51.2594 152.015 51.5901 152.521 51.5901C153.027 51.5901 153.407 51.234 153.407 50.7506Z" fill="#DBE269"/>
<path d="M155.178 50.9541C155.178 49.8857 155.912 49.0208 157.001 49.0208C158.216 49.0208 158.798 49.9875 158.798 51.0305C158.798 51.1068 158.798 51.2085 158.798 51.3103H156.241C156.343 51.7936 156.672 52.0226 157.127 52.0226C157.482 52.0226 157.735 51.9208 158.013 51.641L158.595 52.1752C158.266 52.6077 157.76 52.8621 157.102 52.8621C156.014 52.8621 155.178 52.0989 155.178 50.9541ZM157.76 50.6489C157.709 50.191 157.431 49.8603 156.975 49.8603C156.52 49.8603 156.267 50.1655 156.191 50.6489H157.76Z" fill="#DBE269"/>
<path d="M159.557 49.0971H160.595V49.6313C160.823 49.3261 161.152 49.0462 161.683 49.0462C162.164 49.0462 162.518 49.2497 162.721 49.6313C163.05 49.2497 163.43 49.0462 163.936 49.0462C164.72 49.0462 165.176 49.5041 165.176 50.3945V52.7858H164.138V50.7252C164.138 50.2419 163.911 49.9875 163.531 49.9875C163.151 49.9875 162.898 50.2419 162.898 50.7252V52.7858H161.86V50.7252C161.86 50.2419 161.633 49.9875 161.253 49.9875C160.873 49.9875 160.62 50.2419 160.62 50.7252V52.7858H159.582V49.0971H159.557Z" fill="#DBE269"/>
<path d="M165.885 50.9541C165.885 49.8857 166.619 49.0208 167.707 49.0208C168.922 49.0208 169.504 49.9875 169.504 51.0305C169.504 51.1068 169.504 51.2085 169.504 51.3103H166.948C167.049 51.7936 167.378 52.0226 167.834 52.0226C168.188 52.0226 168.441 51.9208 168.72 51.641L169.302 52.1752C168.973 52.6077 168.466 52.8621 167.808 52.8621C166.72 52.8621 165.885 52.0989 165.885 50.9541ZM168.466 50.6489C168.416 50.191 168.137 49.8603 167.682 49.8603C167.226 49.8603 166.973 50.1655 166.897 50.6489H168.466Z" fill="#DBE269"/>
<path d="M170.238 49.0971H171.276V49.6313C171.504 49.3261 171.833 49.0462 172.339 49.0462C173.124 49.0462 173.579 49.5804 173.579 50.4199V52.8112H172.541V50.7506C172.541 50.2673 172.314 50.0129 171.909 50.0129C171.504 50.0129 171.251 50.2673 171.251 50.7506V52.8112H170.213V49.1225L170.238 49.0971Z" fill="#DBE269"/>
<path d="M174.668 51.7173V49.962H174.237V49.0717H174.668V48.1304H175.705V49.0717H176.566V49.962H175.705V51.5392C175.705 51.7682 175.807 51.8954 176.034 51.8954C176.237 51.8954 176.389 51.8445 176.541 51.7682V52.6077C176.313 52.7349 176.06 52.8112 175.731 52.8112C175.098 52.8112 174.668 52.5568 174.668 51.7173Z" fill="#DBE269"/>
<path d="M125.54 55.4823V22.5134H126.907V55.4823H125.54Z" fill="#DBE269"/>
<path d="M164.012 25.0319C164.012 25.0319 163.961 25.1336 163.911 25.1336C163.86 25.1336 163.835 25.0828 163.809 25.0319C163.809 24.7775 163.759 24.5486 163.657 24.3196C163.404 23.6836 162.923 23.2257 162.265 23.0222C162.088 22.9713 161.886 22.9459 161.709 22.9205C161.658 22.9205 161.633 22.895 161.607 22.8441C161.607 22.7933 161.607 22.7424 161.683 22.7424C161.835 22.7424 161.987 22.717 162.139 22.6661C162.847 22.488 163.43 21.9792 163.657 21.2924C163.733 21.0634 163.784 20.8599 163.784 20.6055C163.784 20.5546 163.835 20.5038 163.86 20.5038C163.911 20.5038 163.961 20.5292 163.961 20.6055C164.012 21.4196 164.442 22.1319 165.201 22.488C165.48 22.6152 165.758 22.6915 166.087 22.717C166.138 22.717 166.163 22.7678 166.163 22.8187C166.163 22.8696 166.138 22.895 166.087 22.895C165.758 22.895 165.454 22.9968 165.151 23.1494C164.948 23.2512 164.771 23.4038 164.594 23.5564C164.214 23.9635 164.012 24.4214 163.961 24.981L164.012 25.0319Z" fill="#DBE269"/>
</svg>
