<svg width="42" height="35" viewBox="0 0 42 35" fill="none" xmlns="http://www.w3.org/2000/svg">
<path d="M27.1333 34.8322H23.1843L19.5177 25.6655H7.61567L3.949 34.8322H0L11.7333 5.49883H15.4L27.1333 34.8322ZM35.5667 18.3322V34.8322H31.9V18.3322H35.5667ZM9.08233 21.9988H18.051L13.5667 10.788L9.08233 21.9988ZM32.8698 0.585497C32.9387 0.412714 33.0578 0.264554 33.2117 0.160175C33.3656 0.0557965 33.5473 0 33.7333 0C33.9193 0 34.101 0.0557965 34.255 0.160175C34.4089 0.264554 34.528 0.412714 34.5968 0.585497L35.0607 1.70383C35.8389 3.60147 37.3153 5.12837 39.1857 5.97L40.5002 6.55666C40.6685 6.63454 40.811 6.75896 40.9108 6.91522C41.0107 7.07147 41.0638 7.25305 41.0638 7.4385C41.0638 7.62394 41.0107 7.80552 40.9108 7.96178C40.811 8.11804 40.6685 8.24245 40.5002 8.32033L39.1105 8.94C37.2856 9.75752 35.8335 11.2293 35.0405 13.065L34.5895 14.1027C34.519 14.2716 34.4001 14.416 34.2478 14.5175C34.0954 14.619 33.9164 14.6732 33.7333 14.6732C33.5503 14.6732 33.3713 14.619 33.2189 14.5175C33.0666 14.416 32.9477 14.2716 32.8772 14.1027L32.4243 13.0668C31.6322 11.2308 30.1807 9.75833 28.3562 8.94L26.9628 8.32033C26.794 8.24267 26.651 8.11824 26.5508 7.96178C26.4505 7.80532 26.3972 7.6234 26.3972 7.43758C26.3972 7.25176 26.4505 7.06984 26.5508 6.91338C26.651 6.75692 26.794 6.63249 26.9628 6.55483L28.2792 5.96816C30.1496 5.1278 31.6265 3.60226 32.406 1.70566L32.8698 0.585497Z" fill="#357E51"/>
</svg>
