<svg width="45" height="45" viewBox="0 0 45 45" fill="none" xmlns="http://www.w3.org/2000/svg">
<g clip-path="url(#clip0_1_1149)">
<path fill-rule="evenodd" clip-rule="evenodd" d="M17.2705 2.94397C20.7277 2.92932 24.1847 2.94397 27.6416 2.98792C29.7304 3.26147 30.7557 4.46263 30.7178 6.59143C30.7852 7.93306 30.1993 8.4018 28.9599 7.99768C28.7243 7.80485 28.5925 7.55583 28.5644 7.25061C28.5352 6.75256 28.5058 6.25452 28.4765 5.75647C28.4033 5.44885 28.2129 5.25842 27.9053 5.18518C24.2725 5.12659 20.6396 5.12659 17.0068 5.18518C16.6992 5.25842 16.5087 5.44885 16.4355 5.75647C16.4063 6.25452 16.3769 6.75256 16.3476 7.25061C16.1269 8.07133 15.6143 8.34966 14.8095 8.08557C14.4302 7.89875 14.2398 7.59114 14.2383 7.16272C14.0023 5.7022 14.427 4.48638 15.5127 3.51526C16.073 3.2063 16.6589 3.01587 17.2705 2.94397Z" fill="#357E51"/>
<path fill-rule="evenodd" clip-rule="evenodd" d="M44.9561 12.5244C44.9561 15.1904 44.9561 17.8565 44.9561 20.5225C44.6004 21.6253 43.868 22.3724 42.7588 22.7637C37.4005 23.9787 32.0392 25.1799 26.6748 26.3672C26.6024 27.5471 26.5584 28.7337 26.543 29.9268C26.4179 30.3931 26.1103 30.6421 25.6201 30.6738C23.5107 30.7325 21.4014 30.7325 19.292 30.6738C18.8018 30.6421 18.4942 30.3931 18.3691 29.9268C18.3537 28.7337 18.3097 27.5471 18.2373 26.3672C12.8729 25.1799 7.51154 23.9787 2.15332 22.7637C1.04414 22.3724 0.311722 21.6253 -0.0439453 20.5225C-0.0439453 17.8565 -0.0439453 15.1904 -0.0439453 12.5244C0.300816 11.2571 1.12113 10.4807 2.41699 10.1953C15.7764 10.1367 29.1357 10.1367 42.4951 10.1953C43.791 10.4807 44.6113 11.2571 44.9561 12.5244ZM2.85645 12.2608C15.9229 12.2461 28.9893 12.2608 42.0557 12.3047C42.4071 12.3634 42.6561 12.5539 42.8027 12.876C42.8614 15.3077 42.8614 17.7393 42.8027 20.1709C42.7041 20.3576 42.5723 20.5187 42.4072 20.6543C37.1418 21.8802 31.8683 23.0667 26.5869 24.2139C26.6155 23.7657 26.5715 23.3263 26.4551 22.8955C26.3195 22.7305 26.1584 22.5986 25.9717 22.5C23.6279 22.4414 21.2842 22.4414 18.9404 22.5C18.7537 22.5986 18.5926 22.7305 18.457 22.8955C18.3406 23.3263 18.2966 23.7657 18.3252 24.2139C13.0438 23.0667 7.77031 21.8802 2.50488 20.6543C2.3398 20.5187 2.20796 20.3576 2.10938 20.1709C2.05078 17.7393 2.05078 15.3077 2.10938 12.876C2.27203 12.5546 2.52106 12.3495 2.85645 12.2608ZM20.4346 24.5655C21.7822 24.5655 23.1299 24.5655 24.4775 24.5655C24.4775 25.8838 24.4775 27.2022 24.4775 28.5205C23.1299 28.5205 21.7822 28.5205 20.4346 28.5205C20.4346 27.2022 20.4346 25.8838 20.4346 24.5655Z" fill="#357E51"/>
<path fill-rule="evenodd" clip-rule="evenodd" d="M1.62598 24.4776C2.2425 24.3392 2.6966 24.5444 2.98828 25.0928C3.01758 29.6631 3.04688 34.2334 3.07617 38.8038C3.07769 39.2321 3.26813 39.5398 3.64746 39.7266C16.1866 39.7852 28.7256 39.7852 41.2647 39.7266C41.644 39.5398 41.8344 39.2321 41.8359 38.8038C41.8652 34.2334 41.8946 29.6631 41.9238 25.0928C42.2159 24.5296 42.6699 24.3392 43.2861 24.5215C43.7017 24.6442 43.9214 24.9225 43.9453 25.3565C44.0039 29.9561 44.0039 34.5557 43.9453 39.1553C43.7053 40.86 42.7238 41.7829 41.001 41.9239C28.6377 41.9825 16.2744 41.9825 3.91114 41.9239C2.18829 41.7829 1.20685 40.86 0.966799 39.1553C0.908202 34.5557 0.908202 29.9561 0.966799 25.3565C1.00822 24.9207 1.22795 24.6278 1.62598 24.4776Z" fill="#357E51"/>
</g>
<defs>
<clipPath id="clip0_1_1149">
<rect width="45" height="45" fill="white"/>
</clipPath>
</defs>
</svg>
