<svg width="52" height="52" viewBox="0 0 52 52" fill="none" xmlns="http://www.w3.org/2000/svg">
<path fill-rule="evenodd" clip-rule="evenodd" d="M52 25.9329C52 26.3482 52 26.7635 52 27.1787C51.4946 29.3553 50.1404 30.5318 47.9375 30.7085C45.8791 30.5068 44.5588 29.3994 43.9766 27.3864C42.2848 27.2653 40.5922 27.248 38.8984 27.3345C38.3281 30.1791 37.0755 32.6535 35.1406 34.7574C36.5103 36.2094 37.8983 37.6455 39.3047 39.0659C39.6446 39.0433 39.9831 38.9741 40.3203 38.8582C42.6529 38.6663 43.9732 39.7564 44.2812 42.1285C43.8852 44.6948 42.4295 45.7503 39.9141 45.2949C38.1615 44.4979 37.4675 43.131 37.832 41.1941C37.9436 40.8449 38.096 40.5162 38.2891 40.2079C36.9504 38.8222 35.5962 37.4552 34.2266 36.1071C33.7555 36.9108 33.434 37.7759 33.2617 38.7025C33.1335 40.8443 33.0659 42.9898 33.0586 45.1392C32.8881 46.8519 32.0586 48.0977 30.5703 48.8766C30.019 51.3588 28.4956 52.3624 26 51.8874C23.5044 52.3624 21.981 51.3588 21.4297 48.8766C19.9422 48.0983 19.1127 46.8525 18.9414 45.1392C18.9341 42.9898 18.8665 40.8443 18.7383 38.7025C18.5659 37.7754 18.2443 36.9103 17.7734 36.1071C16.3699 37.4898 14.9819 38.8914 13.6094 40.3117C13.839 40.5995 13.9914 40.9282 14.0664 41.298C14.3653 43.4392 13.502 44.8062 11.4766 45.3988C9.17469 45.5552 7.88824 44.4651 7.61719 42.1285C7.89064 39.7212 9.21096 38.6311 11.5781 38.8582C11.9383 38.9469 12.2769 39.0507 12.5938 39.1697C14.034 37.7148 15.4559 36.244 16.8594 34.7574C14.9244 32.6532 13.6717 30.1789 13.1016 27.3345C11.4078 27.248 9.71513 27.2653 8.02344 27.3864C7.09234 30.181 5.23037 31.1673 2.4375 30.3452C1.09922 29.6984 0.286722 28.6429 0 27.1787C0 26.7635 0 26.3482 0 25.9329C0.504482 23.7575 1.85864 22.5809 4.0625 22.4031C6.13127 22.5592 7.45158 23.6493 8.02344 25.6734C9.68194 25.7253 11.3408 25.7426 13 25.7253C12.8377 22.4937 13.7178 19.6041 15.6406 17.0565C14.6927 16.0876 13.7448 15.1185 12.7969 14.1496C11.0741 14.8563 9.60142 14.4929 8.37891 13.0595C7.41404 11.1383 7.76951 9.52915 9.44531 8.23201C11.1983 7.42966 12.6709 7.79303 13.8633 9.32209C14.4886 10.5641 14.4716 11.7925 13.8125 13.0076C14.7435 13.9593 15.6744 14.9109 16.6055 15.8626C18.9831 13.3759 21.8777 12.0262 25.2891 11.8137C25.3228 10.6005 25.289 9.38934 25.1875 8.1801C22.5505 7.28848 21.5519 5.45437 22.1914 2.67776C23.1654 0.492905 24.8073 -0.354936 27.1172 0.134225C28.9541 0.772683 29.936 2.08771 30.0625 4.0793C29.8929 6.20749 28.8095 7.57442 26.8125 8.1801C26.711 9.38934 26.6772 10.6005 26.7109 11.8137C30.1223 12.0262 33.0169 13.3759 35.3945 15.8626C36.3439 14.9095 37.2749 13.9405 38.1875 12.9557C37.3685 11.2415 37.6394 9.73607 39 8.43964C40.7091 7.4434 42.2494 7.66834 43.6211 9.11446C44.6254 10.8677 44.4055 12.4422 42.9609 13.8382C42.3711 14.2698 41.7109 14.4948 40.9805 14.513C40.3674 14.443 39.7749 14.3219 39.2031 14.1496C38.2552 15.1185 37.3073 16.0876 36.3594 17.0565C38.2821 19.6038 39.1623 22.4933 39 25.7253C40.6592 25.7426 42.318 25.7253 43.9766 25.6734C44.8707 23.0185 46.6649 22.015 49.3594 22.6627C50.8254 23.2772 51.7057 24.3673 52 25.9329ZM25.4922 1.53576C27.7007 1.52601 28.6655 2.63339 28.3867 4.85793C27.8339 6.22234 26.8353 6.79333 25.3906 6.57092C23.8584 6.01659 23.2659 4.9265 23.6133 3.30067C23.9612 2.38984 24.5876 1.80154 25.4922 1.53576ZM10.9688 9.32209C12.6005 9.61308 13.1252 10.5475 12.543 12.1252C11.6316 13.1904 10.6838 13.225 9.69922 12.229C9.04949 10.755 9.47267 9.78605 10.9688 9.32209ZM40.8281 9.32209C41.9445 9.40798 42.5878 10.0136 42.7578 11.1389C42.6393 12.229 42.0469 12.8346 40.9805 12.9557C39.4088 12.5993 38.9349 11.6649 39.5586 10.1526C39.9017 9.72761 40.3249 9.45076 40.8281 9.32209ZM24.5781 13.371C29.4549 13.0519 33.2296 14.9552 35.9023 19.081C38.6225 24.6724 37.8438 29.6902 33.5664 34.1345C32.309 35.9316 31.6488 37.9387 31.5859 40.156C27.8619 40.156 24.1381 40.156 20.4141 40.156C20.2976 37.1153 19.1634 34.5545 17.0117 32.4734C14.3374 28.8062 13.7957 24.8264 15.3867 20.5344C17.2353 16.5165 20.2991 14.1286 24.5781 13.371ZM3.65625 23.9604C5.73834 24.0639 6.66934 25.1713 6.44922 27.2826C5.63563 29.0478 4.3661 29.515 2.64062 28.6841C1.34043 27.5222 1.18809 26.2245 2.18359 24.7909C2.63124 24.4154 3.12213 24.1386 3.65625 23.9604ZM47.6328 23.9604C49.6109 24.0281 50.542 25.0663 50.4258 27.0749C49.7387 28.9058 48.503 29.4767 46.7188 28.7879C45.6953 28.0732 45.3059 27.087 45.5508 25.8291C45.9185 24.8122 46.6125 24.1893 47.6328 23.9604ZM10.3594 40.3636C12.153 40.3108 12.8469 41.1759 12.4414 42.959C11.7977 43.8818 10.9682 44.1067 9.95312 43.6339C8.77367 42.3668 8.90909 41.2767 10.3594 40.3636ZM40.5234 40.3636C41.7991 40.2487 42.5438 40.8369 42.7578 42.1285C42.5464 43.4302 41.8016 44.0012 40.5234 43.8415C39.4711 43.4031 39.0818 42.6244 39.3555 41.5056C39.603 40.9581 39.9924 40.5775 40.5234 40.3636ZM20.4141 41.7132C24.1381 41.7132 27.8619 41.7132 31.5859 41.7132C31.5859 42.4399 31.5859 43.1667 31.5859 43.8934C30.7389 43.8762 29.8926 43.8934 29.0469 43.9453C28.5751 44.1555 28.4228 44.5189 28.5898 45.0354C28.6406 45.2257 28.7591 45.3468 28.9453 45.3988C29.7916 45.4333 30.6381 45.468 31.4844 45.5026C31.0379 46.7896 30.1577 47.551 28.8438 47.7866C26.9479 47.8558 25.0521 47.8558 23.1562 47.7866C21.8423 47.551 20.9621 46.7896 20.5156 45.5026C22.4453 45.468 24.375 45.4333 26.3047 45.3988C26.45 45.3505 26.5684 45.2639 26.6602 45.1392C26.7545 44.7505 26.7037 44.3872 26.5078 44.0491C24.4834 43.8971 22.4521 43.8452 20.4141 43.8934C20.4141 43.1667 20.4141 42.4399 20.4141 41.7132ZM23.1562 49.4996C25.0346 49.3789 26.9305 49.3616 28.8438 49.4476C28.6251 49.8789 28.2866 50.1557 27.8281 50.2782C26.6094 50.3474 25.3906 50.3474 24.1719 50.2782C23.7281 50.1523 23.3895 49.8927 23.1562 49.4996Z" fill="#357E51"/>
<path fill-rule="evenodd" clip-rule="evenodd" d="M29.2503 17.2095C30.1052 17.1673 30.9516 17.2192 31.7894 17.3652C31.874 17.4517 31.9587 17.5383 32.0433 17.6247C32.0941 18.316 32.1109 19.0081 32.0941 19.7011C32.8856 19.4142 33.6812 19.1373 34.4808 18.8706C34.8278 18.8783 35.0648 19.0513 35.1917 19.3897C35.2595 23.0925 35.2595 26.7953 35.1917 30.4981C35.1445 30.6467 35.0598 30.7678 34.9378 30.8615C31.9672 30.9818 28.9881 31.0337 26.0003 31.0172C23.0126 31.0337 20.0334 30.9818 17.0628 30.8615C16.9409 30.7678 16.8562 30.6467 16.8089 30.4981C16.7093 27.8937 16.7432 25.2982 16.9105 22.7118C17.3011 22.4284 17.7243 22.2034 18.18 22.037C20.7557 20.9365 23.3456 19.881 25.9496 18.8706C26.2354 18.861 26.4723 18.9648 26.6605 19.182C26.6776 20.1182 26.7283 21.0526 26.8128 21.9851C27.3585 21.7703 27.9003 21.5453 28.4378 21.3103C28.621 20.1074 28.7056 18.879 28.6917 17.6247C28.8441 17.4203 29.0302 17.2819 29.2503 17.2095ZM30.1644 18.7667C30.131 19.3591 30.1649 19.9474 30.266 20.5316C30.3337 20.4971 30.4013 20.4624 30.4691 20.4278C30.5701 19.8784 30.604 19.3248 30.5706 18.7667C30.4353 18.7667 30.2998 18.7667 30.1644 18.7667ZM24.9847 20.8431C22.7895 21.8569 20.5552 22.7912 18.2816 23.6462C18.2816 25.5841 18.2816 27.522 18.2816 29.46C18.654 29.46 19.0263 29.46 19.3988 29.46C19.3524 28.2382 19.4031 27.027 19.5511 25.8264C19.6357 25.7399 19.7204 25.6533 19.805 25.5668C21.0915 25.4976 22.3779 25.4976 23.6644 25.5668C23.8097 25.6151 23.9282 25.7017 24.0199 25.8264C24.0706 27.0371 24.0876 28.2483 24.0706 29.46C24.4769 29.46 24.8831 29.46 25.2894 29.46C25.2894 26.5876 25.2894 23.7154 25.2894 20.8431C25.1878 20.8431 25.0863 20.8431 24.9847 20.8431ZM33.516 20.8431C31.278 21.8219 29.0267 22.7908 26.7621 23.75C26.7113 25.653 26.6943 27.5564 26.7113 29.46C29.0472 29.46 31.3831 29.46 33.7191 29.46C33.7859 26.551 33.7183 23.6787 33.516 20.8431ZM20.9222 27.0722C20.9222 27.8681 20.9222 28.664 20.9222 29.46C21.4638 29.46 22.0056 29.46 22.5472 29.46C22.5472 28.664 22.5472 27.8681 22.5472 27.0722C22.0056 27.0722 21.4638 27.0722 20.9222 27.0722Z" fill="#357E51"/>
</svg>
